<?xml version="1.0" encoding="UTF-8"?>
<svg version="1.1" viewBox="0 0 2000 2000" width="1280" height="1280" xmlns="http://www.w3.org/2000/svg">
<path transform="translate(973,396)" d="m0 0h53l40 4 30 5 36 9 32 11 21 9 29 14 22 13 20 13 19 14 13 10 13 11 14 12 21 21 7 8 12 14 14 19 11 16 16 26 10 18 13 28 7 17 11 31 11 44 4 24 3 24 1 18v44l-1 21-5 36-5 24-8 31-12 35-11 25-11 23-10 17-13 21-14 19-12 16-11 13-16 17-14 14-11 9-7 7-14 11-21 16-19 12-15 9-18 10-28 13-29 11-26 8-31 8-28 5-22 3-16 1h-55l-19-1-39-6-25-6-26-7-32-11-21-9-29-14-28-17-11-7-16-12-17-13-11-10-8-7-10-9-18-18-7-8-12-14-14-19-13-18-13-22-8-14-16-33-13-35-8-26-8-34-5-34-2-21v-65l3-26 6-36 9-35 10-29 6-15 11-24 11-22 8-13 14-23 14-19 9-12 12-14 12-13 9-10 8-7 12-11 11-9 18-14 18-13 24-15 18-11 23-11 23-10 31-11 40-10 30-5 25-3zm-273 266-8 4-4 6v12l4 7 6 4 3 1 55 1 9 3 4 8 9 29 15 51 18 61 23 77 6 17 8 11v4l-8 6-7 6-7 8-8 10-9 15-6 13-3 9v10l4 6 4 3 3 1 38 1h347l11-3 5-6 1-9-4-8-5-4-3-1h-361l9-15 8-10 10-9 11-7 245-1 15-2 12-5 9-6 9-10 7-16 24-83 19-66 10-34 2-11-1-7-3-5-8-4-410-1-10-30-7-13-9-9-8-5-10-3-10-1zm127 392-11 4-8 6-8 9-4 10-1 5v12l4 11 6 9 8 7 8 4 3 1h21l10-4 6-4 8-9 5-12 1-5v-10l-4-13-6-8-8-7-8-4-7-2zm309 0-11 4-9 7-7 8-4 10-1 4v13l4 12 8 11 9 6 9 3h19l11-4 9-7 7-10 4-12v-11l-3-10-7-11-8-7-11-5-4-1z" fill="#38B4FD"/>
<path transform="translate(646,1365)" d="m0 0h12l9 4 6 7 5-2 8-6 8-3h13l10 4 7 8 3 10-1 14-7 41-2 2h-20l-4-1 1-9 5-28v-16l-3-3-5-1-10 3-4 7-5 24-4 22-1 1h-25l2-14 5-30-1-9-3-3-7-1-8 3-5 10-8 43-2 2h-20l-3-1v-8l10-56 2-11 1-1h23l1 1v7l3-1 5-5z" fill="#38B4FD"/>
<path transform="translate(431,1338)" d="m0 0h22l12 3 11 6 9 9 5 8 4 11v3l-2 1h-25l-3-3-7-8-5-3-5-1h-12l-11 4-3 3h-2l-7 14-1 5v11l3 9 4 5 10 5 9 1 11-2 9-6 8-9h26l1 3-7 13-11 12-7 6-10 5-15 4h-15l-16-4-10-6-9-8-6-10-4-9-2-14 2-13 4-11 7-11 11-11 14-8z" fill="#38B4FD"/>
<path transform="translate(787,1365)" d="m0 0h11l11 4 5 4 6 10 3 11v11l-4 16-7 11-8 8-10 5-4 1h-12l-8-3-10-9-6 31-1 6-2 1h-23l-1-2 14-81 4-21 1-1h23l2 1-1 6 4-1 8-6zm-10 22-7 4-4 6-2 6v11l4 7 5 3 8 1 8-4 5-6 2-5v-14l-3-5-3-3-3-1z" fill="#38B4FD"/>
<path transform="translate(533,1365)" d="m0 0h11l9 4 5 5 5 4 1-10 1-1h24l-1 13-11 62-2 2h-23l-1-1v-6l-4 2-5 4-8 3h-12l-9-4-7-6-6-12-1-5v-12l2-12 7-14 6-7 9-6zm5 22-6 3-4 5-3 9v9l4 8 5 3h11l6-4 5-6 2-9-1-10-4-6-5-2z" fill="#38B4FD"/>
<path transform="translate(869,1365)" d="m0 0h12l12 3 9 6 7 8 5 12 1 14-2 2-49 1h-8l3 9 4 4 3 1h9l6-3 4-4h26l1 2-8 12-8 7-10 5-8 2h-16l-10-3-10-6-7-9-3-5-2-8v-13l4-12 8-11 7-6 12-6zm2 20-8 4-5 6 2 2 18 1 10-1-1-5-5-5-3-2z" fill="#38B4FD"/>
<path transform="translate(1055,759)" d="m0 0h72l-1 12-8 44-2 6-63 1-1-1v-25l2-35z" fill="#38B4FE"/>
<path transform="translate(967,759)" d="m0 0h68l1 1v15l-2 42-2 4h-62l-2-4-1-28z" fill="#38B4FE"/>
<path transform="translate(879,759)" d="m0 0h68l1 1 1 8 2 44v8l-1 1-19 1h-19l-24-1-2-6-7-48z" fill="#38B4FE"/>
<path transform="translate(1015,1365)" d="m0 0h15l13 3 9 6 7 9 1 8h-24l-4-5-2-1h-10l-2 1-1 5 5 2 20 7 10 7 4 6 1 10-4 10-7 7-8 4-8 2h-19l-12-4-9-7-6-10-1-5 1-1h23l2 4 9 3h8l4-3-1-3-8-4-18-7-7-5-4-6-1-3v-9l3-8 5-6 9-5z" fill="#38B4FD"/>
<path transform="translate(1119,1338)" d="m0 0h18l10 3 11 8 7 11 1 6-3 1h-8l-3-3-5-7-7-4-10-2-12 1-10 5-4 8 2 9 5 4 13 5 19 6 14 7 5 4 4 6 2 12-2 9-7 10-11 7-14 3h-12l-12-3-9-5-6-5-6-10-3-6v-4h13l4 8 3 3v2l4 2 11 4h16l8-3 6-5 2-4v-9l-2-4-14-7-26-8-10-5-6-5-4-8-1-5v-7l4-10 7-8 10-5z" fill="#0B141A"/>
<path transform="translate(1389,1369)" d="m0 0h13l10 3 8 6 7 8 4 10 1 6v10l-3 12-7 10-8 7-7 3-5 1h-12l-10-3-9-7-1 1v35l-1 1h-7l-4-1v-100l1-1h10l1 2v8l7-6 8-4zm-1 11-9 5-5 6-3 6-1 5v11l3 9 6 7 10 5h13l9-5 6-7 3-11v-9l-3-9-6-8-7-4-3-1z" fill="#0F1921"/>
<path transform="translate(1147,759)" d="m0 0h45l-2 11-14 49-2 2h-38l-1-2 10-56z" fill="#38B4FE"/>
<path transform="translate(983,1365)" d="m0 0 2 1-2 18-2 6-14 1-9 3-5 7-8 42-2 1h-23l-1-4 13-72 1-1h23l1 5-1 5 5-5 6-5z" fill="#38B4FD"/>
<path transform="translate(1185,1340)" d="m0 0 10 1 1 1 1 37 9-7 8-3h14l9 3 8 7 5 12 1 10v42l-9 1-4-2v-46l-3-8-7-6-3-1h-13l-8 5-5 6-2 6-1 45-1 1h-9l-2-1v-102z" fill="#091219"/>
<path transform="translate(970,840)" d="m0 0h62l-1 31-1 9-1 1h-56l-2-1-1-11z" fill="#38B4FD"/>
<path transform="translate(1050,840)" d="m0 0h62l-1 13-5 27-1 1h-56l-1-1v-14z" fill="#38B4FE"/>
<path transform="translate(891,840)" d="m0 0h60l1 2 1 24v14l-1 1h-55l-2-7-4-27z" fill="#38B4FE"/>
<path transform="translate(1297,1369)" d="m0 0h14l10 3 8 5 8 9 5 12v18l-4 11-9 10-7 5-12 3h-13l-13-4-10-9-6-10-2-6v-17l4-11 4-6 7-7 11-5zm0 11-10 5-6 7-3 8v15l3 7 6 7 7 4 4 1h13l10-5 6-7 3-8v-15l-5-10-7-6-8-3z" fill="#0D161D"/>
<path transform="translate(972,900)" d="m0 0h56v23l-1 19-1 1h-51l-1-1-1-8z" fill="#38B4FD"/>
<path transform="translate(819,759)" d="m0 0h40l2 6 8 51v5h-32l-4-9-14-48z" fill="#38B4FD"/>
<path transform="translate(1047,900)" d="m0 0h55l-1 8-6 33-1 2h-49l-1-9 2-29z" fill="#38B4FD"/>
<path transform="translate(900,900)" d="m0 0h53l1 1 1 10 1 31-1 1h-48l-2-6-5-32z" fill="#38B4FE"/>
<path transform="translate(1132,840)" d="m0 0h37l-2 11-8 28-3 2h-31l-1-4 7-36z" fill="#38B4FE"/>
<path transform="translate(1121,900)" d="m0 0h31l-2 10-7 21-7 8-13 4h-9v-8l6-34z" fill="#38B4FD"/>
<path transform="translate(842,840)" d="m0 0h30l3 15 3 20v5l-1 1h-23l-3-6-8-29z" fill="#38B4FE"/>
<path transform="translate(1140,1077)" d="m0 0h9l6 3 4 5 2 5v9l-6 8-5 3-8 1-8-3-6-8-1-10 4-8 6-4z" fill="#38B4FE"/>
<path transform="translate(830,1077)" d="m0 0h9l7 3 4 5 2 6-1 9-5 7-9 4-8-1-6-4-3-3-2-6v-8l3-6 5-4z" fill="#38B4FE"/>
<path transform="translate(860,900)" d="m0 0h21l2 7 5 31v4l-6-1-9-5-6-9-5-15-2-8z" fill="#38B4FE"/>
<path transform="translate(597,1550)" d="m0 0h14l7 4 5 7 1 4v7l-3 8-8 7-6 2h-9l-8-5-4-5-2-5v-9l5-10zm2 4-6 4-4 8v7l4 7 5 4 6 1 9-3 4-5 1-3v-11l-6-7-4-2z" fill="#224053"/>
<path transform="translate(1434,1550)" d="m0 0h12l10 1 4 2 3 6-1 9-6 5h-2l8 13-1 2-5-1-7-11-11-2v13h-5v-36zm7 4-3 1v13l1 1h15l3-2 1-7-5-5z" fill="#45B0F0"/>
<path transform="translate(1335,1550)" d="m0 0h5l5 6 13 22 1 1 1-28 4-1 1 1v35l-1 2-7-1-13-22-4-7-1 29h-5v-36z" fill="#264559"/>
<path transform="translate(1240,1550)" d="m0 0h10l12 1 6 5 1 8-3 7-5 3 2 5 5 7-1 2-5-2-7-10-2-1-9-1v13l-2 1-3-2v-35zm5 4-1 1v14h16l4-3-1-8-4-3z" fill="#274355"/>
<path transform="translate(819,1550)" d="m0 0h10l12 1 6 5 1 7-3 7-4 3h-2l6 10 2 5-5-1-7-9-2-3-10-1v13h-5v-36zm6 4-2 1v14h16l4-4v-6l-5-4z" fill="#35ADF4"/>
<path transform="translate(1061,1550)" d="m0 0h9l12 2 5 4 4 7v12l-5 8-8 4-8 1h-9l-2-1v-36zm5 4-2 1v27l3 2 10-1 6-4 3-6v-8l-4-7-7-3z" fill="#1E323F"/>
<path transform="translate(696,1550)" d="m0 0 21 1 5 3 3 6-1 7-4 5-3 2 2 5 5 7-1 2-5-2-8-11-10-1v13h-4l-1-1v-35zm5 4-1 1v14h17l3-3-1-9-4-2z" fill="#243D4D"/>
<path transform="translate(1013,1550)" d="m0 0h26l1 4-1 1h-21v12h17l1 4-4 1h-13v10l17 1 4 1v3l-3 1h-23l-1-1z" fill="#3DB2F8"/>
<path transform="translate(1197,1550)" d="m0 0h12l3 3 8 34-3 1-3-3-2-7h-18l-1 1-1 7-5 1 1-9 6-24zm4 4-3 4-3 10v4l3 1h10l3-1-2-11-2-5-2-2z" fill="#202E37"/>
<path transform="translate(1388,1550)" d="m0 0h24l2 4-1 1h-20l-1 12h18l1 3-1 1h-18v12h20l2 1v3l-2 1h-23l-2-1v-36z" fill="#1D3646"/>
<path transform="translate(869,1550)" d="m0 0h5l1 27 1 5 9 2 6-3 1-3 1-27 5-1 1 1v25l-3 7-6 5-3 1h-8l-6-4-3-4-2-12z" fill="#37AEF5"/>
<path transform="translate(929,1549)" d="m0 0h8l6 3 4 4v4l-5-2-5-3-5-1-7 2v5l1 3 10 3 8 3 4 5-1 7-4 5-5 2h-9l-6-3-4-5-1-5 4 1 5 5 5 2 7-1 3-4-2-5-13-4-7-6v-8l7-6z" fill="#17394E"/>
<path transform="translate(1141,1550)" d="m0 0h12l10 1 5 4 2 4-1 9-4 5-5 2-14 1-1 11-3 1-2-1v-35zm4 5v15l4 1h9l5-3 2-3-1-7-5-3z" fill="#3DAAEC"/>
<path transform="translate(644,1550)" d="m0 0 4 1v21l2 8 1 3 9 1 4-2 2-4 1-7 1-20 4-1 1 5v15l-2 11-5 6-5 2h-7l-6-3-4-5-2-11 1-19z" fill="#244051"/>
<path transform="translate(965,1550)" d="m0 0h30l-1 5-11 1-1 31h-5l-1-31-11-1-1-4z" fill="#38B4FE"/>
<path transform="translate(1287,1550)" d="m0 0h28l1 4-1 1-11 1-1 31h-5l-1-31-10-1-2-1v-3z" fill="#38B4FE"/>
<path transform="translate(774,1550)" d="m0 0h25l1 4-1 1-11 1-1 31h-5v-32h-11l-2-1v-3z" fill="#38B4FE"/>
<path transform="translate(535,1549)" d="m0 0 4 1 4 5 7 12h2l11-17 4-1-2 6-10 18-1 13-5 1-2-15-11-19z" fill="#1F3746"/>
<path transform="translate(1335,1550)" d="m0 0h5l5 6 2 3v7l-3-1-4-7-1 29h-5v-36z" fill="#0F1A22"/>
<path transform="translate(1449,1552)" d="m0 0h9l4 4 1 9-3 5-4 3h-2l8 13-1 2-5-1-7-11-2-4-3-3 10-1 2-1 1-7-4-4-4-2z" fill="#1C3B4E"/>
<path transform="translate(1059,1551)" d="m0 0 9 1-3 2-1 3-1 27 13 1-1 2-5 1h-9l-2-1z" fill="#152E3E"/>
<path transform="translate(894,1550)" d="m0 0 5 1v25l-3 7-4 3 1-6-1-2 1-27z" fill="#38B4FE"/>
<path transform="translate(1243,1556)" d="m0 0h1v13h15l3 4v4l6 9-1 2-5-2-7-10-2-1-9-1v11h-1z" fill="#3BB5FD"/>
<path transform="translate(699,1556)" d="m0 0h1v13h15l1 3 2 1v4l6 9-1 2-5-2-8-11-10-1v13h-1z" fill="#3C9FDA"/>
<path transform="translate(942,1570)" d="m0 0 4 2 2 3-1 7-4 5-5 2h-9l-6-3-4-5-1-5 4 1 5 5 5 2 7-1 3-4 1-4 1 1v-3l-2-1z" fill="#39586B"/>
<path transform="translate(965,1550)" d="m0 0h30l-1 5h-29l-1-4z" fill="#35A7EB"/>
<path transform="translate(1388,1550)" d="m0 0h24l2 4-1 1h-12l-7-1v-2h-5v35h-2v-36z" fill="#6FAED3"/>
<path transform="translate(774,1550)" d="m0 0h25l1 4-1 1h-11l-3-1-6 1h-8l-2-1v-3z" fill="#3AB5FD"/>
<path transform="translate(1287,1550)" d="m0 0h28l1 4-1 1h-11l-1-1-8-1v2h-8l-2-1v-3z" fill="#53BEFD"/>
<path transform="translate(697,1551)" d="m0 0h5l-2 5-1 32-3-1v-35z" fill="#05070A"/>
<path transform="translate(1242,1551)" d="m0 0 5 1-2 1-1 3v31l-2 1-2-1v-35z" fill="#05070A"/>
<path transform="translate(597,1550)" d="m0 0h5l8 4-2 1h-9l-6 4-3 7-1 7-2-3-1-10 3-5z" fill="#1C3748"/>
<path transform="translate(1335,1550)" d="m0 0h5l2 3-6-1 2 35h-4v-36z" fill="#4CBBFD"/>
<path transform="translate(1140,1552)" d="m0 0 3 1v35l-3-1z" fill="#071017"/>
<path transform="translate(696,1550)" d="m0 0 21 1-2 2 4 4-18-3 1-3-5 1-1 34h-1v-35z" fill="#48B0EE"/>
<path transform="translate(929,1549)" d="m0 0h8l6 3 4 4v4l-5-2-5-3-9-1v-2l-3-1z" fill="#3F6D89"/>
<path transform="translate(1391,1556)" d="m0 0h1v11h18l1 3-1 1h-18v12h-1z" fill="#3EB6FD"/>
<path transform="translate(820,1552)" d="m0 0h23l2 4 1 10h-2l-3-8-3-2-13-1-4 1z" fill="#17394E"/>
<path transform="translate(1063,1557)" d="m0 0h1l1 25 6 1 9-2v3l5-4h2l1-4 3-3-2 6-5 5-6 3-13-2-2-1z" fill="#64C4FD"/>
<path transform="translate(831,1570)" d="m0 0 4 2 5 3 7 11v2l-5-1-7-9z" fill="#234A62"/>
<path transform="translate(1240,1550)" d="m0 0h10l12 1 2 2-19 1-3-2h-2v34h-1v-35z" fill="#6AC6FD"/>
<path transform="translate(708,1570)" d="m0 0 4 1 5 5 7 10-1 2-5-2-7-10z" fill="#274254"/>
<path transform="translate(1153,1552)" d="m0 0h9l5 5 1 5v6l-5 4h-3l2-4 2-3-1-7-1-3-9-2z" fill="#162732"/>
<path transform="translate(892,1579)" d="m0 0 2 1-1 4-1 3-5 2h-8l-3-3 1-3 8 1 6-3z" fill="#2A4556"/>
<path transform="translate(1087,1558)" d="m0 0 3 3 1 2v10l-4 7-5 4h-2l1-4 4-7 1-8h1l1 5 2 1z" fill="#48B9FD"/>
<path transform="translate(844,1554)" d="m0 0 3 2 1 7-3 7-6 4-5-2-1-3 8-2 2-5 1 4h2z" fill="#2880B4"/>
<path transform="translate(602,1550)" d="m0 0h9l7 4 2 2 1 9-4-5-3-3-4-1-3-3-8-1z" fill="#1F2E38"/>
<path transform="translate(1257,1573)" d="m0 0h3l8 14-3 1-5-4-6-10z" fill="#294B61"/>
<path transform="translate(1192,1561)" d="m0 0h1v11l-2 5 3 1-1 1-1 7-5 1 1-9z" fill="#71C9FD"/>
<path transform="translate(535,1549)" d="m0 0 4 1 4 5 3 5-1 7-4-5-6-12z" fill="#416A84"/>
<path transform="translate(612,1556)" d="m0 0 4 2 4 3 1-3 2 3-1 6-4 10-1-3v-11z" fill="#85D0FD"/>
<path transform="translate(1202,1552)" d="m0 0h9l1 1v9l-1 2h-2l-3-8z" fill="#0C161D"/>
<path transform="translate(942,1570)" d="m0 0 4 2 2 3-1 7-5 5v-3-3-6l2 1v-3l-2-1z" fill="#4A9FD2"/>
<path transform="translate(1449,1552)" d="m0 0h9l2 1v9l-2 1-3-6-6-2z" fill="#1F3442"/>
<path transform="translate(644,1550)" d="m0 0 3 1-1 1-1 8v17l2 7-3-3-2-11 1-19z" fill="#72C9FD"/>
<path transform="translate(934,1568)" d="m0 0h6l2 1v3l3 1-1 4-6-4-7-2z" fill="#10222E"/>
<path transform="translate(1197,1550)" d="m0 0h12l2 2-7 1-5 5-2 6h-1v-7l3-4z" fill="#83D0FD"/>
<path transform="translate(1017,1584)" d="m0 0 23 1v2h-25z" fill="#040304"/>
<path transform="translate(552,1570)" d="m0 0 3 1-1 15-4 1v-9z" fill="#53BEFD"/>
<path transform="translate(1295,1553)" d="m0 0h8l1 5-1 29h-1l-1-33-6 1z" fill="#060A0E"/>
<path transform="translate(1215,1573)" d="m0 0 2 1 3 13-3 1-3-3-1-5h1z" fill="#8BC2E4"/>
<path transform="translate(704,1569)" d="m0 0h11l1 3 2 1-3 2-4-4-1 1v3l-6-1z" fill="#68C5FD"/>
<path transform="translate(1455,1577)" d="m0 0 4 4 3 6-4 1-4-4z" fill="#5991B3"/>
<path transform="translate(823,1569)" d="m0 0h10l-1 2 1 3h-10z" fill="#38B4FE"/>
<path transform="translate(785,1553)" d="m0 0 3 1-1 33h-1l-1-31-6-1v-1z" fill="#050709"/>
<path transform="translate(929,1549)" d="m0 0h8l3 2-7-1v2l5 1-1 2-9-1v-2l-3-1z" fill="#65C4FD"/>
<path transform="translate(1061,1550)" d="m0 0h9l9 1v1l-5 1 1 2h-11l1-3z" fill="#70C8FD"/>
<path transform="translate(844,1554)" d="m0 0 3 2 1 7-3 7-4-2 2-6 1 4h2z" fill="#41B7FD"/>
<path transform="translate(1153,1552)" d="m0 0h9l5 5 1 4-4-1-2-5-9-2z" fill="#09141D"/>
<path transform="translate(1243,1551)" d="m0 0h19l2 2-19 1z" fill="#66C5FD"/>
<path transform="translate(1019,1568)" d="m0 0 17 1v2l-4 1-14-1z" fill="#05070A"/>
<path transform="translate(1188,1578)" d="m0 0h3l1 8-5 1z" fill="#295067"/>
<path transform="translate(1393,1568)" d="m0 0 15 1 2 2h-16z" fill="#040304"/>
<path transform="translate(1212,1557)" d="m0 0 2 4-1 10-2 1-2-8h2z" fill="#9DD9FD"/>
<path transform="translate(593,1556)" d="m0 0 2 1-4 6-2 10-2-3v-8l5-5z" fill="#65C4FD"/>
<path transform="translate(1460,1555)" d="m0 0 2 1 1 9-3 5-1-3z" fill="#5FC2FD"/>
<path transform="translate(1161,1551)" d="m0 0 5 2 4 6-1 9h-1l-2-11z" fill="#A0DAFD"/>
<path transform="translate(1086,1574)" d="m0 0h2l-1 6-5 4h-2l1-4 3-4h2z" fill="#283640"/>
<path transform="translate(928,1551)" d="m0 0 1 2-2 3h-2l-1 3-1-2-3 2 1-4 3-3z" fill="#355F79"/>
<path transform="translate(1395,1567)" d="m0 0h15l1 3-14-1z" fill="#AADEFD"/>
<path transform="translate(921,1564)" d="m0 0 4 2 5 1 2-1 4 2-6 3-7-4z" fill="#7DCDFD"/>
<path transform="translate(585,1562)" d="m0 0h1l1 17-2-2-1-3v-9z" fill="#45B8FD"/>
<path transform="translate(603,1551)" d="m0 0 7 3-2 1h-9l-4 1 4-4z" fill="#72C9FD"/>
</svg>
